<svg id="SvgjsSvg1012" width="288" height="288" xmlns="http://www.w3.org/2000/svg" version="1.1" xmlns:xlink="http://www.w3.org/1999/xlink" xmlns:svgjs="http://svgjs.com/svgjs"><defs id="SvgjsDefs1013"></defs><g id="SvgjsG1014"><svg xmlns="http://www.w3.org/2000/svg" width="288" height="288" enable-background="new 0 0 64 64" viewBox="0 0 64 64"><path d="M27 12h10v2h-10zM27 16h10v2h-10z" fill="#ffffff" class="color000 svgShape"></path><path d="m57 54v-8c0-.444-.293-.835-.72-.96l-23.28-6.79v-12.25h7c.553 0 1-.448 1-1v-16c0-.265-.105-.52-.293-.707l-6-6c-.187-.188-.441-.293-.707-.293h-10c-.553 0-1 .448-1 1v22c0 .552.447 1 1 1h7v12.25l-23.28 6.79c-.427.125-.72.516-.72.96v8c0 .444.293.835.72.96l24 7c.092.027.185.04.28.04s.188-.013.28-.04l24-7c.427-.125.72-.516.72-.96zm-22-48.586 2.586 2.586h-2.586zm-10-1.414h8v5c0 .552.447 1 1 1h5v14h-14zm6 36.333v5.253l-2.293-2.293-1.414 1.414 4 4c.195.195.451.293.707.293s.512-.098.707-.293l4-4-1.414-1.414-2.293 2.293v-5.253l19.429 5.667-20.429 5.958-20.429-5.958zm-22 7 22 6.417v5.917l-22-6.417zm24 12.334v-5.917l22-6.417v5.917z" fill="#ffffff" class="color000 svgShape"></path><path d="M27 8h4v2h-4zM3 26h7c0 2.757 2.243 5 5 5h3c1.654 0 3 1.346 3 3v1.586l-2.293-2.293-1.414 1.414 4 4c.195.195.451.293.707.293s.512-.098.707-.293l4-4-1.414-1.414-2.293 2.293v-1.586c0-2.757-2.243-5-5-5h-3c-1.654 0-3-1.346-3-3h7c.553 0 1-.448 1-1v-16c0-.265-.105-.52-.293-.707l-6-6c-.187-.188-.441-.293-.707-.293h-10c-.553 0-1 .448-1 1v22c0 .552.447 1 1 1zm11-20.586l2.586 2.586h-2.586zm-10-1.414h8v5c0 .552.447 1 1 1h5v14h-14z" fill="#ffffff" class="color000 svgShape"></path><path d="M6 12h10v2h-10zM6 16h10v2h-10zM6 20h10v2h-10zM6 8h4v2h-4zM62 25v-16c0-.265-.105-.52-.293-.707l-6-6c-.187-.188-.441-.293-.707-.293h-10c-.553 0-1 .448-1 1v22c0 .552.447 1 1 1h7c0 1.654-1.346 3-3 3h-3c-2.757 0-5 2.243-5 5v1.586l-2.293-2.293-1.414 1.414 4 4c.195.195.451.293.707.293s.512-.098.707-.293l4-4-1.414-1.414-2.293 2.293v-1.586c0-1.654 1.346-3 3-3h3c2.757 0 5-2.243 5-5h7c.553 0 1-.448 1-1zm-6-19.586l2.586 2.586h-2.586zm-10 18.586v-20h8v5c0 .552.447 1 1 1h5v14z" fill="#ffffff" class="color000 svgShape"></path><path d="M48 12h10v2h-10zM48 16h10v2h-10zM48 20h10v2h-10zM48 8h4v2h-4zM27 20h2v2h-2zM31 20h2v2h-2zM35 20h2v2h-2z" fill="#ffffff" class="color000 svgShape"></path></svg></g></svg>