<svg id="SvgjsSvg1021" width="288" height="288" xmlns="http://www.w3.org/2000/svg" version="1.1" xmlns:xlink="http://www.w3.org/1999/xlink" xmlns:svgjs="http://svgjs.com/svgjs"><defs id="SvgjsDefs1022"></defs><g id="SvgjsG1023"><svg xmlns="http://www.w3.org/2000/svg" width="288" height="288" viewBox="0 0 512 512"><path d="m500.79 201.69c-.04-.09-.09-.17-.13-.25l-96.11-176.22a32 32 0 0 0 -57.1 0l-69.15 126.78h-70.3v-16a8 8 0 0 0 -8-8h-32a8 8 0 0 0 -8 8v16h-120a32.036 32.036 0 0 0 -32 32v64a31.92 31.92 0 0 0 10.87 24 31.92 31.92 0 0 0 -10.87 24v64a31.92 31.92 0 0 0 10.87 24 31.92 31.92 0 0 0 -10.87 24v64a32.036 32.036 0 0 0 32 32h288a32.036 32.036 0 0 0 32-32v-64a31.92 31.92 0 0 0 -10.87-24 31.92 31.92 0 0 0 10.87-24v-64a31.92 31.92 0 0 0 -10.87-24 31.92 31.92 0 0 0 10.87-24h112.17a32 32 0 0 0 28.62-46.31zm-324.79-57.69h16v8h-16zm168 328a16.021 16.021 0 0 1 -16 16h-288a16.021 16.021 0 0 1 -16-16v-64a16.021 16.021 0 0 1 16-16h288a16.021 16.021 0 0 1 16 16zm0-112a16.021 16.021 0 0 1 -16 16h-288a16.021 16.021 0 0 1 -16-16v-64a16.021 16.021 0 0 1 16-16h288a16.021 16.021 0 0 1 16 16zm-16-96h-288a16.021 16.021 0 0 1 -16-16v-64a16.021 16.021 0 0 1 16-16h229.58l-18.24 33.44c-.04.08-.09.16-.13.25a32 32 0 0 0 28.62 46.31h64.17a16.021 16.021 0 0 1 -16 16zm157.78-39.59a15.914 15.914 0 0 1 -13.61 7.59h-192.34a16 16 0 0 1 -14.37-23.04l24.56-45.03c.05-.08.09-.15.13-.23l71.41-130.94c.04-.08.09-.16.13-.25a16 16 0 0 1 28.62 0c.04.09.09.17.13.25l96.1 176.2a15.921 15.921 0 0 1 -.76 15.45z" fill="#ffffff" class="color000 svgShape"></path><path d="M397.89 58.58a8.031 8.031 0 00-5.89-2.58h-32a7.987 7.987 0 00-7.97 8.66l8 96a8 8 0 007.97 7.34h16a8 8 0 007.97-7.34l8-96a8.013 8.013 0 00-2.08-6.08zm-21.25 93.42h-1.28l-6.67-80h14.62zM392 176h-32a8 8 0 00-8 8v32a8 8 0 008 8h32a8 8 0 008-8v-32a8 8 0 00-8-8zm-8 32h-16v-16h16zM32 328a24 24 0 1024-24 24.027 24.027 0 00-24 24zm24-8a8 8 0 11-8 8 8.009 8.009 0 018-8zM112 352a24 24 0 10-24-24 24.027 24.027 0 0024 24zm0-32a8 8 0 11-8 8 8.009 8.009 0 018-8zM168 352a24 24 0 10-24-24 24.027 24.027 0 0024 24zm0-32a8 8 0 11-8 8 8.009 8.009 0 018-8zM248 328h80a8 8 0 000-16h-80a8 8 0 000 16zM328 336h-40a8 8 0 000 16h40a8 8 0 000-16zM216 328h8a8 8 0 000-16h-8a8 8 0 000 16zM56 192a24 24 0 1024 24 24.027 24.027 0 00-24-24zm0 32a8 8 0 118-8 8.009 8.009 0 01-8 8zM112 192a24 24 0 1024 24 24.027 24.027 0 00-24-24zm0 32a8 8 0 118-8 8.009 8.009 0 01-8 8zM168 192a24 24 0 1024 24 24.027 24.027 0 00-24-24zm0 32a8 8 0 118-8 8.009 8.009 0 01-8 8zM224 200h-8a8 8 0 000 16h8a8 8 0 000-16zM32 440a24 24 0 1024-24 24.027 24.027 0 00-24 24zm24-8a8 8 0 11-8 8 8.009 8.009 0 018-8zM112 464a24 24 0 10-24-24 24.027 24.027 0 0024 24zm0-32a8 8 0 11-8 8 8.009 8.009 0 018-8zM168 464a24 24 0 10-24-24 24.027 24.027 0 0024 24zm0-32a8 8 0 11-8 8 8.009 8.009 0 018-8zM248 440h80a8 8 0 000-16h-80a8 8 0 000 16zM328 448h-40a8 8 0 000 16h40a8 8 0 000-16zM216 440h8a8 8 0 000-16h-8a8 8 0 000 16zM184 120a8 8 0 008-8v-16h104a8 8 0 000-16h-112a8 8 0 00-8 8v24a8 8 0 008 8zM408 256a8 8 0 00-8 8v176h-24a8 8 0 000 16h32a8 8 0 008-8v-184a8 8 0 00-8-8z" fill="#ffffff" class="color000 svgShape"></path></svg></g></svg>